<svg id="Layer_1" xmlns="http://www.w3.org/2000/svg" viewBox="0 0 470.9 511.5"><style>.st0,.st1{fill:none;stroke:#c1cbd3}.st0{enable-background:new;opacity:.19}.st1{opacity:.27}.st1,.st2,.st3{enable-background:new}.st2{stroke:#c1cbd3;opacity:.1;fill:none}.st3{opacity:.46;fill:url(#Path-2_1_);fill-opacity:.2}.st4{fill:#2c303a}.st5{fill:#d1dce8}.st6{fill:#f1f7ff}.st7{fill:#4f5666}.st8{fill:#c0cdd8}.st9{fill:#116d64}.st10{fill:#11998e}</style><title>secure</title><g id="Layer_2_1_"><g id="Layer_1-2"><g id="Page-1"><g id="Artboard"><g id="Workflow-1"><g id="Group"><path id="Shape" class="st0" d="M378.4 295.4c85.4 49.3 85.9 129.3 1 178.6s-222.9 49.3-308.3 0-85.9-129.3-1-178.6 222.9-49.3 308.3 0zM152.3 426.8c40.3 23.3 105.4 23.3 145.4 0s39.8-61-.5-84.2-105.4-23.3-145.4 0-39.8 61 .5 84.2z"/><ellipse id="Oval" transform="rotate(-89.84 224.725 384.664)" class="st1" cx="224.7" cy="384.7" rx="59.6" ry="102.8"/></g><path id="Shape-2" class="st2" d="M71.1 474c85.4 49.3 223.4 49.3 308.3 0s84.4-129.3-1-178.6-223.4-49.3-308.3 0-84.4 129.3 1 178.6"/><linearGradient id="Path-2_1_" gradientUnits="userSpaceOnUse" x1="504.709" y1="264.777" x2="503.919" y2="264.197" gradientTransform="matrix(252.54 0 0 -163.15 -127038.578 43488.41)"><stop offset="0" stop-color="#fff" stop-opacity="0"/><stop offset="1" stop-color="#4f5666"/></linearGradient><path id="Path-2" class="st3" d="M218.3 380.1l252.6-19.6L376.1 217z"/><path id="Shape-3" class="st4" d="M218.3 28.4l26.2-15.5c-24.9 7.5-51.3 8.5-76.6 3-14.5-3.2-28.4-8.6-41.3-15.9l-26.2 15.5c17.3 9.1 36.2 15 55.6 17.4 20.9 2.6 42 1.1 62.3-4.5z"/><path id="Shape-4" class="st5" d="M100.8 15.4c17.3 9.1 36.2 15 55.6 17.4 20.9 2.5 42 1 62.3-4.5 16 26 34.9 50.2 56.4 72 18.7 19 39.2 36.1 61.2 51.1l-.3 118.5c-.1 47.3-19.4 80.9-52.2 90.9l-66.1 20-65.7-96.2c-32.6-47.7-51.6-103.4-51.5-150.7l.3-118.5z"/><path id="Shape-5" class="st6" d="M273.5 334c28.5-8.6 31.7-47.7 31.7-64.1l.3-110c-24-14-45.8-31.6-64.6-52.1-16-17.5-29.6-37-40.6-58-14.9 3.4-30.3 4.2-45.4 2.3-14.1-1.7-27.8-5.7-40.6-11.7l-.2 87.7c-.1 42.6 17.8 94.3 47.9 138.3l55 80.6 56.5-13z"/><path id="Shape-6" class="st4" d="M336 269.9l.3-118.4 28.1-16.3-.3 118.4v2.5c-.8 37.9-21.4 72.6-54.2 91.6l-12.5 7.3c24.4-14.4 38.5-44.8 38.6-85.1z"/><path id="Shape-7" class="st7" d="M336 151.6l27.8-16c-24.2-16.2-46.5-35-66.8-55.9C277.3 59.3 259.8 37 244.6 13l-26.2 15.5c14.1 23.1 30.5 44.8 49 64.6 20.6 22 43.6 41.7 68.6 58.5z"/><path id="Shape-8" class="st8" d="M201.2 161.3c-11.7-6.7-21.1-1.3-21.1 12 0 9.2 4.5 19.9 11.2 27.8v29.2c0 5 4 11.3 9 14.2s9 1.2 9-3.8v-28.2c7.6.8 13-4.8 13-14.9 0-13.3-9.4-29.6-21.1-36.3z"/><path id="Shape-9" class="st5" d="M209.4 212.6v28.5c-.5-.2-1-.4-1.5-.7-5-2.9-9-9.2-9-14.2V197c-6.7-7.9-11.2-18.6-11.2-27.8 0-4.5 1.1-8.1 2.9-10.6 3.1-.3 6.8.6 10.7 2.8 11.6 6.7 21.1 23 21.1 36.4 0 4.5-1.1 8.1-2.9 10.6-3.3 5.1-10.1 4.2-10.1 4.2z"/><path id="Shape-10" class="st9" d="M152.1 249.6l-11.5-6.7-.1-26.5 11.5 6.7z"/><path id="Shape-11" class="st9" d="M130.9 261.8l-7.8-4.5c-2.3-1.3-3.6-3.7-3.7-6.3l-.1-22.3 11.5 6.7.1 26.4z"/><path id="Shape-12" class="st9" d="M79.4 249.5l-11.5-6.6 101.4-58.6 11.5 6.7z"/><path id="Shape-13" class="st9" d="M65.4 257.2c-.9-2.5-2.6-4.5-4.8-5.9l-11.5-6.7c3.8 2.2 6.1 6.8 6.1 13.4 0 .6 0 1.2-.1 1.8v.4c0 .6-.1 1.2-.2 1.8 0 .2 0 .3-.1.5l-.1.8c0 .2-.1.4-.1.6 0 .2-.1.5-.2.8s-.1.3-.1.5c-.2.7-.3 1.4-.5 2.1 0 .1-.1.2-.1.3-.2.6-.3 1.2-.5 1.8v.1c-.2.6-.4 1.2-.6 1.7-.1.1-.1.3-.2.4l-.6 1.5c0 .1-.1.2-.1.2-.2.5-.5 1.1-.7 1.6l-.2.4-.6 1.2-.2.5-.9 1.5c-.1.1-.1.2-.2.3-.3.5-.5.9-.8 1.3l-.2.4c-.3.5-.7 1.1-1.1 1.6 0 .1-.1.2-.2.2-.4.5-.8 1.1-1.2 1.6l-.2.2c-.5.6-1 1.3-1.5 1.9l-.2.2-1 1.1-1.1 1.1-.2.2c-.5.5-1 .9-1.4 1.3l-.1.1c-.5.4-1 .9-1.5 1.2l-.3.2-1.5 1.1-.3.2c-.5.4-1.1.7-1.6 1l-1.3.7-.4.2-1 .5-.4.1c-.3.1-.6.2-.9.4l-.2.1c-.4.1-.8.2-1.1.3l-.6.2-.3.1c-.3.1-.6.1-1 .2l-.8.1h-2.2c-.3 0-.6 0-.9-.1h-.3c-.3-.1-.7-.1-1-.2-.3-.1-.6-.2-1-.3l-.3-.1c-.3-.1-.5-.2-.8-.4l-.2-.1 11.5 6.6.1.1.1.1c.2.1.5.3.8.4l.1.1h.1c.3.1.6.2 1 .3s.7.2 1 .2h.3c.3 0 .6.1 1 .1H38c.3 0 .5-.1.8-.1h.1l.9-.2.3-.1.6-.1h.1c.4-.1.7-.2 1.1-.4l.2-.1.9-.3h.1l.2-.1 1-.5.4-.2c.4-.2.9-.5 1.3-.7s1.1-.7 1.6-1l.3-.2c.5-.4 1-.7 1.5-1.1l.3-.2c.5-.4 1-.8 1.5-1.3l.1-.1c.5-.4 1-.9 1.4-1.3l.2-.1.1-.1c.7-.7 1.4-1.5 2.1-2.2l.1-.1.1-.1c.5-.6 1-1.2 1.5-1.9l.1-.1c.4-.5.8-1 1.2-1.6 0-.1.1-.1.1-.2l.1-.1c.4-.5.7-1 1-1.6l.1-.1c0-.1.1-.1.1-.2.3-.4.5-.9.8-1.3l.1-.2v-.1l.9-1.5.1-.1.1-.3c.2-.4.4-.8.7-1.3l.1-.2.1-.1c.3-.5.5-1.1.7-1.6 0-.1 0-.1.1-.2l.6-1.5.1-.2c0-.1 0-.1.1-.2l.6-1.8v-.3l.6-1.8c0-.1 0-.2.1-.2v-.1c.2-.7.4-1.4.5-2.1v-.5c.1-.3.1-.5.2-.8s.1-.4.1-.6.1-.6.1-.8l.1-.4v-.1c.1-.6.1-1.2.2-1.8v-.4c0-.6.1-1.2.1-1.8 0-2.5-.4-5-1.2-7.4z"/><path id="Shape-14" class="st9" d="M11.5 294c0-.4 0-.9.1-1.3l.1-.7c0-.4.1-.9.1-1.3 0-.2.1-.4.1-.6s.1-.6.1-.9c.1-.5.1-.9.2-1.4 0-.3.1-.6.2-.9 0-.3.2-.9.2-1.3s.1-.7.2-1.1l.2-.9.3-1.2.2-.9c.1-.5.3-1 .4-1.4.1-.2.1-.3.1-.5.2-.6.4-1.3.6-1.9.3-1 .7-1.9 1-2.9l.4-.8c.3-.8.6-1.6 1-2.4.1-.1.1-.3.2-.4.4-.9.8-1.8 1.2-2.6l.3-.7c.3-.7.7-1.4 1-2.1l.3-.6c.5-.9.9-1.7 1.4-2.5.1-.2.2-.3.3-.5.4-.7.9-1.5 1.3-2.2.1-.2.3-.4.4-.6.6-.9 1.1-1.7 1.7-2.6l.3-.4c.6-.9 1.3-1.8 1.9-2.6.1-.1.2-.3.3-.4l.6-.8c.3-.3.5-.6.8-1s.4-.5.6-.8l.8-.9c.5-.6 1.1-1.2 1.7-1.8v-.1l1.8-1.8c.4-.4.8-.7 1.1-1.1l.3-.3c.5-.5 1-.9 1.5-1.4l.4-.3c.4-.3.8-.7 1.2-1l.6-.4c.3-.3.7-.5 1-.8l.6-.5 1-.7.6-.4 1.1-.7.5-.3c.5-.3 1.1-.7 1.6-1s1.1-.6 1.6-.9l.4-.2 1.3-.7.2-.1 1.5-.6 1.5-.6.3-.1 1.8-.6 1-.3.5-.1c1-.2 2-.4 3-.5H62c.4 0 .9 0 1.3.1h.3l1 .2.3.1 1.2.3h.1c.4.1.8.2 1.2.4l.3.1c.3.1.6.2.9.4l.2.1c.4.2.8.4 1.1.6l-11.5-6.7-.2-.1c-.3-.2-.6-.3-1-.5l-.2-.1-.5-.2-.3-.2-.3-.1c-.4-.1-.8-.3-1.1-.4h-.1l-1.2-.3-.3-.1-.4-.1-.6-.1h-.3c-.4-.1-.8-.1-1.1-.1h-2.2l-.7.1h-.5c-.5 0-1 .1-1.4.2-.5.1-1 .2-1.6.3l-.5.1c-.3.1-.6.1-1 .2h-.1l-1.8.6-.3.1-1.7.5-.2.1c-.4.2-.9.4-1.3.6l-.2.1-1.3.7-.4.2c-.5.3-1 .6-1.6.9s-1.1.6-1.7 1l-.5.3c-.4.2-.7.5-1.1.7l-.6.4-1 .7-.6.4-1 .8-.6.4-1.1 1-.4.3c-.5.4-1 .9-1.5 1.4l-.3.3-1 .9-.1.1-1.8 1.8-.1.1c-.6.6-1.1 1.2-1.6 1.8-.1 0-.1.1-.1.2-.2.2-.4.5-.6.7l-.6.8-.8 1c-.2.2-.4.5-.6.8l-.1.1c-.1.1-.1.2-.2.2-.6.9-1.3 1.7-1.9 2.6l-.2.3-.1.1c-.6.9-1.2 1.7-1.7 2.6 0 .1-.1.2-.2.2s-.2.2-.2.4c-.5.7-.9 1.4-1.4 2.2l-.2.3-.1.1c-.5.8-1 1.7-1.4 2.6 0 .1-.1.1-.1.2l-.2.4c-.4.7-.7 1.4-1.1 2.1l-.2.4c0 .1-.1.2-.1.3-.4.9-.8 1.8-1.2 2.6v.1l-.1.3c-.3.8-.7 1.6-1 2.4 0 .1-.1.3-.2.4l-.3.6c-.4.9-.7 1.9-1 2.9v.1c-.2.6-.4 1.2-.6 1.9l-.2.5c-.1.4-.2.8-.3 1.1l-.1.3c-.1.3-.1.6-.2.9l-.3 1.2c-.1.3-.1.6-.2.9l-.1.7c0 .1 0 .3-.1.4-.1.4-.2.9-.3 1.3s-.1.6-.2.9-.1.9-.2 1.4c0 .2-.1.4-.1.7v.3c0 .2 0 .4-.1.6 0 .5-.1.9-.1 1.3v.7c0 .4-.1.9-.1 1.3v2.5c0 10.8 3.9 18.4 10 22l11.5 6.7c-6.2-3.6-10-11.2-10-22v-1.9l.1-.7z"/><path id="Shape-15" class="st10" d="M79.4 249.5L180.8 191v15.5l-15.4 8.9.1 22.3c0 2.6-1.4 4.9-3.6 6.2l-9.9 5.7v-26.5l-7.7 4.4.1 22.2c0 2.6-1.4 5.1-3.7 6.4l-9.8 5.6-.1-26.5L79.4 265c-3.1 19.9-16.9 41.5-33.5 51.1-18.9 10.9-34.4 2.1-34.4-19.6s15.3-48.3 34.2-59.2c16.6-9.7 30.5-4 33.7 12.2zm-33.5 51.1c11.5-6.6 20.8-22.8 20.8-36s-9.4-18.6-20.9-11.9-20.8 22.8-20.8 36 9.4 18.6 20.9 11.9z"/></g></g></g></g></g></svg>