<svg xmlns="http://www.w3.org/2000/svg" width="200" height="168" viewBox="0 0 200 168">
    <g fill="none" fill-rule="evenodd">
        <path stroke="#CCCFFF" stroke-linecap="round" stroke-linejoin="round" stroke-width="54.545" d="M35.653 93.183l54.059 45.297 79.87-96.192"/>
        <path fill="#FFF" d="M140.839 156.872h-79.38c-.543 0-.983-.46-.983-1.027V52.082c0-.568.44-1.028.983-1.028h79.38c.543 0 .983.46.983 1.028v103.763c0 .567-.44 1.027-.983 1.027"/>
        <path fill="#CBCEF7" d="M139.78 156.802H62.922c-1.129 0-2.043-.956-2.043-2.135v-28.78c0-1.18.914-2.136 2.043-2.136h76.856c1.129 0 2.043.956 2.043 2.135v28.781c0 1.179-.914 2.135-2.043 2.135"/>
        <path stroke="#000" stroke-linecap="round" stroke-width=".5" d="M140.839 156.872h-79.38c-.543 0-.983-.46-.983-1.027V52.082c0-.568.44-1.028.983-1.028h79.38c.543 0 .983.46.983 1.028v103.763c0 .567-.44 1.027-.983 1.027zM85.93 51.054c0-.474.02-.944.06-1.408"/>
        <path fill="#FF5A00" d="M110.708 110.096c-.53.193-1.1.299-1.692.299-1.849 0-2.743-1.016-3.551-2.543-.27-.483-.416-1.543-.416-1.543v-8.362h6.841l-.361-3.334c-.179-1.645-1.51-2.887-3.094-2.887h-3.386v-10.34s-2.05.142-2.732.197c-3.503.288-5.868 2.723-5.868 5.57l.013 4.808-6.054.235v2.406c0 1.848 1.432 3.345 3.2 3.345h2.854v8.562l.04 1.25c.028 5.327 4.17 9.636 9.273 9.636a8.939 8.939 0 0 0 4.933-1.486v-5.813z"/>
        <path stroke="#000" stroke-linecap="round" stroke-width=".5" d="M136.118 120.1v23.213M65.671 63.42v17.966M79.791 49.691c.674-11.715 9.979-20.998 21.358-20.998 4.262 0 8.233 1.303 11.568 3.547M115.828 34.786c3.832 3.777 6.33 9.015 6.676 14.863"/>
        <path stroke="#000" stroke-linecap="round" stroke-width=".5" d="M85.99 49.646c.682-8.124 7.208-14.495 15.159-14.495 6.422 0 11.914 4.156 14.149 10.035"/>
        <path fill="#CCCFFF" d="M59.589 29.564c0 4.027-3.123 7.29-6.976 7.29-3.853 0-6.976-3.263-6.976-7.29 0-4.026 3.123-7.29 6.976-7.29 3.853 0 6.976 3.264 6.976 7.29"/>
        <path fill="#FF5A00" d="M108.886 7.425c0 4.026-3.123 7.29-6.975 7.29-3.853 0-6.976-3.264-6.976-7.29s3.123-7.29 6.976-7.29c3.852 0 6.975 3.264 6.975 7.29"/>
        <path fill="#FFEDB2" d="M155.702 26.765c0 4.027-3.123 7.29-6.976 7.29-3.852 0-6.976-3.263-6.976-7.29 0-4.026 3.124-7.29 6.976-7.29 3.853 0 6.976 3.264 6.976 7.29"/>
        <path stroke="#FF5A00" stroke-linecap="round" stroke-width="2.435" d="M65.605 41.27l4.626-3.562"/>
        <path stroke="#FF5A00" stroke-linecap="round" stroke-linejoin="round" stroke-width="1.705" d="M176.035 27.91l.487-2.799-.73-1.527.243-2.544"/>
        <path stroke="#FF5A00" stroke-linecap="round" stroke-linejoin="round" stroke-width="2.679" d="M36.627 120.158l-4.87 1.526-2.419 3.204-4.886 1.632"/>
        <path stroke="#FFF" stroke-linecap="round" stroke-linejoin="round" stroke-width="2.435" d="M158.99 66.59l-1.705-3.053-1.946-1.419-2.194-3.67"/>
        <path stroke="#FFF" stroke-linecap="round" stroke-width="2.922" d="M44.176 102.853l-2.678-8.652"/>
        <path stroke="#FF5A00" stroke-linecap="round" stroke-width="2.435" d="M182.035 109.517l5.533-1.622"/>
        <path fill="#FAEBB3" d="M37.573 80.305l-6.642 3.178-3.042-6.94 6.643-3.18z"/>
        <path fill="#0F4AFA" d="M14.712 87.585l-7.792 5.09L5 83.412z"/>
        <path fill="#CAFB06" d="M40.526 55.786l-6.069 3.964-1.495-7.213z"/>
        <path fill="#CBCBFB" d="M131.474 21.758l-7.043 1.327 1.174-7.278z"/>
        <path fill="#FB5B04" d="M183.516 82.724l.157 6.604-5.47-1.947z"/>
        <path fill="#CAFB06" d="M194.116 49.188l-5.618 2.688-2.573-5.87 5.618-2.689z"/>
        <path fill="#CBCBFB" d="M163.209 120.316l-5.075 2.429-2.323-5.303 5.074-2.429z"/>
    </g>
</svg>
