<svg xmlns="http://www.w3.org/2000/svg" width="110" height="168" viewBox="0 0 110 168">
    <g fill="none" fill-rule="evenodd">
        <path fill="#CBCBFB" d="M5.225 113.033s.391-.057 1.69 1.103c.205.184 1.037 1.132 1.267 1.325.544.457.932 1.146 1.595 1.607 2.106 1.465 4.737 2.769 7.437 2.78 6.176.028 12.549-3.613 13.482-11.064 0 0 2.996 11.038 12.525 11.065 9.53.027 13.332-7.348 13.544-11.828 0 0 1.99 12.022 12.402 11.828 0 0 11.22.599 13.561-11.828 0 0 1.333 11.659 13.244 11.822 2.405.033 5.284-.955 7.686-2.837 1.69-1.324 2.973-3.953 4.013-5.077.526-.569.845-.442.845-.442l.211 49.668s-.976 4.916-5.135 4.997c-4.159.08-35.035 0-35.035 0v-25.25c0-1.372-1.063-2.484-2.376-2.484H48.368c-1.312 0-2.376 1.112-2.376 2.483v25.25H9.904s-5.313.561-5.313-5.75c0-6.31.634-47.368.634-47.368"/>
        <path stroke="#000" stroke-linecap="round" stroke-linejoin="round" stroke-width=".5" d="M15.152 166.152h88.862c2.603 0 4.713-2.206 4.713-4.926l-.14-49.783M4.591 113.212v47.19M30.696 106.282c0 1.767-.324 3.456-.911 5.004"/>
        <path stroke="#000" stroke-linecap="round" stroke-linejoin="round" stroke-width=".5" d="M55.748 111.287c-1.906 5.016-6.591 8.562-12.07 8.562-7.172 0-12.983-6.073-12.983-13.567"/>
        <path stroke="#000" stroke-linecap="round" stroke-linejoin="round" stroke-width=".5" d="M29.784 111.286c-1.905 5.017-6.59 8.563-12.07 8.563-7.171 0-12.982-6.073-12.982-13.567l1.716-6.748.003-.006 8.705-34.24c.177-.696.78-1.18 1.468-1.18h78.972c.675 0 1.268.464 1.458 1.14l9.47 33.696 2.062 7.338c0 7.494-5.81 13.567-12.981 13.567-7.172 0-12.982-6.073-12.982-13.567 0 7.494-5.811 13.567-12.982 13.567-7.171 0-12.982-6.073-12.982-13.567 0 1.768-.323 3.456-.911 5.005M31.678 93.061c1-9.728 2.404-23.055 2.404-23.055M30.696 103.038c0-.274.324-3.544.772-7.928M56.818 93.378c.166-9.753.405-23.372.405-23.372M56.66 103.038c0-.274.053-3.544.128-7.929M81.816 93.378c-.834-9.566-2.015-22.782-2.015-22.782M82.623 103.038c0-.272-.266-3.433-.635-7.685M68.594 166.232v-24.435c0-1.622-1.263-2.937-2.82-2.937h-16.68c-1.558 0-2.82 1.315-2.82 2.937v24.435"/>
        <path fill="#FBDBCB" d="M18.101 64.47h76.271c1.629 0 2.949 1.384 2.949 3.09 0 1.707-1.32 3.09-2.949 3.09H18.101c-1.624 0-2.943-1.377-2.949-3.079-.006-1.71 1.316-3.1 2.949-3.1"/>
        <path fill="#CCCFFF" d="M28.758 15.684c0 8.01-6.214 14.504-13.88 14.504C7.215 30.188 1 23.695 1 15.684 1 7.674 7.214 1.18 14.879 1.18c7.665 0 13.879 6.494 13.879 14.504"/>
        <path fill="#FF5A00" d="M68.702 15.684c0 8.01-6.214 14.504-13.879 14.504-7.665 0-13.879-6.493-13.879-14.504 0-8.01 6.214-14.504 13.879-14.504 7.665 0 13.879 6.494 13.879 14.504"/>
        <path fill="#FFEDB2" d="M106.615 15.684c0 8.01-6.214 14.504-13.879 14.504-7.665 0-13.879-6.493-13.879-14.504 0-8.01 6.214-14.504 13.88-14.504 7.664 0 13.878 6.494 13.878 14.504"/>
    </g>
</svg>
