<svg xmlns="http://www.w3.org/2000/svg" width="195" height="168" viewBox="0 0 195 168">
    <g fill="none" fill-rule="evenodd">
        <path fill="#CBCBFB" d="M7.835 69.45s-2.498 1.12-2.498 3.24c0 4.07 3.156 4.118 6.75 8.411 3.635 4.341 12.982 14.652 19.472 14.652 6.491 0 96.324.271 96.324.271s13.241-9.225 19.991-16.28c2.106-2.2 6.232-3.96 6.232-7.597 0-4.612-9.113-2.697-9.113-2.697H7.835z"/>
        <path fill="#FBEBB3" d="M96.727 147.034c-.13 10.988-5.972 13.295-14.28 13.295-9.087 0-13.76-4.07-13.76-13.295 0-9.497 9.736-31.627 14.28-31.474 4.024.135 13.86 23.063 13.76 31.474"/>
        <path fill="#FF5A00" d="M89.594 151.707c-.133 7.39-3.07 8.621-7.341 8.621-4.672 0-7.075-2.639-7.075-8.62 0-6.16 4.803-20.557 7.341-20.411 2.395.137 7.174 14.957 7.075 20.41"/>
        <path stroke="#CBCBFB" stroke-linecap="round" stroke-width="5.972" d="M112.954 74.453h73.476"/>
        <path stroke="#FBEBB3" stroke-linecap="round" stroke-width="5.193" d="M58.302 163.856h48.031"/>
        <path stroke="#FF5A00" stroke-linecap="round" stroke-width="3.375" d="M45.969 93.99l73.735-.272"/>
        <path stroke="#000" stroke-linecap="round" stroke-linejoin="round" stroke-width=".5" d="M154.938 71.858h36.684"/>
        <path fill="#000" d="M155.404 69.434H3c4.154 14.38 21.29 26.862 29.598 26.862h95.025c4.414 0 27.78-17.637 27.78-26.862m-.266.272c-.198 3.896-4.595 9.85-12.135 16.41-6.173 5.37-13.216 9.908-15.379 9.908H32.598c-4.08 0-10.437-3.131-16.194-7.978-6.395-5.383-11.133-12.048-13.052-18.34h151.785"/>
        <path fill="#CCCFFF" d="M48.282 20.053c0 9.846-7.637 17.827-17.059 17.827-9.421 0-17.059-7.981-17.059-17.827 0-9.846 7.638-17.828 17.06-17.828 9.42 0 17.058 7.982 17.058 17.828"/>
        <path fill="#FF5A00" d="M97.38 20.053c0 9.846-7.638 17.827-17.06 17.827-9.421 0-17.059-7.981-17.059-17.827 0-9.846 7.638-17.828 17.06-17.828 9.42 0 17.058 7.982 17.058 17.828"/>
        <path fill="#FFEDB2" d="M143.98 20.053c0 9.846-7.638 17.827-17.06 17.827-9.42 0-17.058-7.981-17.058-17.827 0-9.846 7.637-17.828 17.059-17.828 9.421 0 17.059 7.982 17.059 17.828"/>
    </g>
</svg>
